PathFileType	3	(X/Y/Z)	squats_1__view2_aligned.trc
DataRate	CameraRate	NumFrames	NumMarkers	Units	OrigDataRate	OrigDataStartFrame	OrigNumFrames
100.0	100.0	12	19	mm	100.0	538	1660
Frame#	Time	pelvis			neck			head			hip_left			hip_right			knee_left			knee_right			ankle_left			ankle_right			heel_left			heel_right			toe_left			toe_right			shoulder_left			shoulder_right			elbow_left			elbow_right			wrist_left			wrist_right			
		X1	Y1	Z1	X2	Y2	Z2	X3	Y3	Z3	X4	Y4	Z4	X5	Y5	Z5	X6	Y6	Z6	X7	Y7	Z7	X8	Y8	Z8	X9	Y9	Z9	X10	Y10	Z10	X11	Y11	Z11	X12	Y12	Z12	X13	Y13	Z13	X14	Y14	Z14	X15	Y15	Z15	X16	Y16	Z16	X17	Y17	Z17	X18	Y18	Z18	X19	Y19	Z19	
538	5.37000	83.611658	852.096506	128.920825	74.171715	1374.005176	-69.426220	58.459515	1473.936944	-207.859347	8.447137	845.848377	133.167607	158.776179	858.344635	124.674043	-74.949405	502.471700	-86.356503	225.874100	526.920366	-109.203814	-76.208742	155.870582	88.787897	244.538449	183.618576	70.742964	-74.504260	115.764842	130.114921	242.064389	145.111868	113.663663	-64.903586	91.035626	-80.558253	271.036646	111.533730	-95.209279	-87.042280	1344.510315	-9.697581	244.405571	1314.036234	-42.745591	-179.096795	1085.866142	57.216219	326.061003	1041.465074	-32.504079	-177.460981	972.730929	-161.708779	247.833663	932.487972	-242.019104
539	5.38000	83.279303	846.448054	131.777399	74.792210	1366.203757	-71.117460	59.395486	1464.973749	-210.336063	8.065416	840.262606	135.822978	158.493144	852.633502	127.731813	-75.303514	500.773020	-89.107951	226.718173	526.601917	-112.326844	-76.726924	155.968460	88.700054	244.226625	185.211022	70.728959	-75.190960	116.049158	130.198335	241.578805	146.958967	113.854337	-64.423387	91.117959	-80.333528	271.583419	112.850333	-94.740928	-86.451076	1337.519113	-11.209515	244.955118	1306.247269	-44.112861	-179.772772	1080.046104	56.956640	326.335157	1034.118065	-33.207637	-178.486062	967.829297	-161.773211	247.024508	927.010594	-242.617298
540	5.39000	82.946948	840.799603	134.633972	75.412704	1358.402338	-72.808700	60.331457	1456.010554	-212.812779	7.683695	834.676836	138.478349	158.210109	846.922368	130.789582	-75.657623	499.074340	-91.859399	227.562245	526.283469	-115.449874	-77.245106	156.066337	88.612211	243.914801	186.803469	70.714954	-75.877660	116.333473	130.281748	241.093220	148.806066	114.045011	-63.943189	91.200293	-80.108802	272.130191	114.166937	-94.272576	-85.859871	1330.527912	-12.721449	245.504664	1298.458304	-45.480131	-180.448748	1074.226066	56.697062	326.609312	1026.771056	-33.911195	-179.511144	962.927665	-161.837644	246.215353	921.533217	-243.215492
541	5.40000	82.614593	835.151151	137.490546	76.033199	1350.600919	-74.499941	61.267427	1447.047359	-215.289495	7.301974	829.091066	141.133719	157.927075	841.211235	133.847352	-76.011732	497.375659	-94.610847	228.406318	525.965020	-118.572904	-77.763288	156.164214	88.524369	243.602978	188.395915	70.700949	-76.564360	116.617789	130.365162	240.607636	150.653166	114.235686	-63.462991	91.282627	-79.884077	272.676964	115.483541	-93.804224	-85.268667	1323.536710	-14.233384	246.054210	1290.669339	-46.847401	-181.124724	1068.406027	56.437483	326.883466	1019.424047	-34.614753	-180.536226	958.026032	-161.902076	245.406198	916.055840	-243.813687
542	5.41000	82.282239	829.502700	140.347119	76.653693	1342.799500	-76.191181	62.203398	1438.084163	-217.766211	6.920252	823.505295	143.789090	157.644040	835.500102	136.905121	-76.365841	495.676979	-97.362296	229.250391	525.646572	-121.695934	-78.281470	156.262092	88.436526	243.291154	189.988362	70.686945	-77.251060	116.902105	130.448575	240.122051	152.500265	114.426360	-62.982792	91.364960	-79.659352	273.223737	116.800145	-93.335873	-84.677462	1316.545509	-15.745318	246.603757	1282.880374	-48.214672	-181.800700	1062.585989	56.177905	327.157620	1012.077038	-35.318311	-181.561308	953.124400	-161.966508	244.597043	910.578463	-244.411881
543	5.42000	81.949884	823.854248	143.203692	77.274188	1334.998081	-77.882422	63.139368	1429.120968	-220.242927	6.538531	817.919525	146.444460	157.361005	829.788969	139.962891	-76.719950	493.978298	-100.113744	230.094464	525.328123	-124.818964	-78.799652	156.359969	88.348683	242.979331	191.580808	70.672940	-77.937760	117.186420	130.531989	239.636467	154.347365	114.617034	-62.502594	91.447294	-79.434627	273.770510	118.116749	-92.867521	-84.086257	1309.554308	-17.257252	247.153303	1275.091409	-49.581942	-182.476676	1056.765951	55.918326	327.431775	1004.730029	-36.021869	-182.586389	948.222768	-162.030941	243.787888	905.101085	-245.010075
544	5.43000	81.643772	817.474582	145.367294	77.141548	1326.213736	-79.337232	62.893581	1418.962927	-222.289066	6.218123	811.596943	148.451313	157.069237	823.352220	142.283251	-76.783278	492.026810	-102.546935	230.388429	522.534368	-126.083386	-78.831714	156.124476	88.241744	242.351891	189.807417	70.686591	-78.063825	117.188997	130.625885	238.860849	152.765952	114.762942	-61.901181	90.774292	-79.131646	273.494573	115.712767	-92.445209	-84.286064	1301.143914	-18.488799	247.122149	1266.811982	-50.897166	-183.155709	1049.162556	55.708266	327.797222	996.967611	-36.751968	-182.402642	941.619807	-162.150702	243.523918	898.490130	-245.493218
545	5.44000	81.337660	811.094916	147.530896	77.008909	1317.429392	-80.792043	62.647795	1408.804887	-224.335206	5.897714	805.274361	150.458165	156.777468	816.915470	144.603610	-76.846606	490.075321	-104.980125	230.682395	519.740612	-127.347807	-78.863776	155.888983	88.134805	241.724451	188.034025	70.700242	-78.189889	117.191574	130.719781	238.085231	151.184539	114.908850	-61.299769	90.101289	-78.828665	273.218636	113.308785	-92.022897	-84.485870	1292.733521	-19.720346	247.090995	1258.532556	-52.212389	-183.834742	1041.559162	55.498206	328.162670	989.205194	-37.482067	-182.218894	935.016845	-162.270463	243.259948	891.879176	-245.976361
546	5.45000	81.031548	804.715251	149.694498	76.876269	1308.645047	-82.246853	62.402008	1398.646847	-226.381346	5.577305	798.951779	152.465017	156.485699	810.478721	146.923970	-76.909935	488.123833	-107.413316	230.976360	516.946857	-128.612229	-78.895838	155.653490	88.027866	241.097011	186.260634	70.713893	-78.315953	117.194150	130.813676	237.309613	149.603126	115.054759	-60.698356	89.428287	-78.525684	272.942699	110.904803	-91.600585	-84.685677	1284.323128	-20.951892	247.059841	1250.253130	-53.527613	-184.513775	1033.955767	55.288146	328.528118	981.442776	-38.212167	-182.035147	928.413884	-162.390224	242.995978	885.268221	-246.459503
547	5.46000	80.725437	798.335585	151.858100	76.743629	1299.860703	-83.701664	62.156221	1388.488806	-228.427485	5.256896	792.629198	154.471869	156.193930	804.041972	149.244329	-76.973263	486.172344	-109.846507	231.270326	514.153101	-129.876651	-78.927900	155.417997	87.920927	240.469571	184.487242	70.727543	-78.442018	117.196727	130.907572	236.533995	148.021713	115.200667	-60.096944	88.755284	-78.222703	272.666762	108.500821	-91.178273	-84.885483	1275.912735	-22.183439	247.028687	1241.973704	-54.842836	-185.192808	1026.352373	55.078086	328.893565	973.680359	-38.942266	-181.851399	921.810923	-162.509985	242.732008	878.657266	-246.942646
548	5.47000	80.419325	791.955919	154.021702	76.610990	1291.076358	-85.156474	61.910434	1378.330766	-230.473625	4.936488	786.306616	156.478722	155.902161	797.605223	151.564689	-77.036591	484.220856	-112.279698	231.564291	511.359346	-131.141072	-78.959962	155.182504	87.813988	239.842131	182.713851	70.741194	-78.568082	117.199304	131.001468	235.758377	146.440300	115.346576	-59.495531	88.082282	-77.919722	272.390825	106.096839	-90.755961	-85.085290	1267.502342	-23.414986	246.997533	1233.694278	-56.158060	-185.871841	1018.748978	54.868027	329.259013	965.917941	-39.672365	-181.667651	915.207962	-162.629746	242.468039	872.046311	-247.425789
549	5.48000	80.113213	785.576253	156.185304	76.478350	1282.292014	-86.611285	61.664647	1368.172725	-232.519765	4.616079	779.984034	158.485574	155.610392	791.168474	153.885049	-77.099920	482.269367	-114.712888	231.858257	508.565590	-132.405494	-78.992024	154.947011	87.707049	239.214692	180.940459	70.754845	-78.694146	117.201881	131.095364	234.982759	144.858888	115.492484	-58.894118	87.409280	-77.616741	272.114888	103.692857	-90.333649	-85.285096	1259.091949	-24.646533	246.966379	1225.414852	-57.473284	-186.550874	1011.145584	54.657967	329.624460	958.155523	-40.402465	-181.483904	908.605001	-162.749508	242.204069	865.435356	-247.908932
